<svg viewBox="0 0 20 20" fill="none" xmlns="http://www.w3.org/2000/svg">
<path d="M13.0431 6.0772C13.0388 6.18163 13.1224 6.21418 13.2036 6.23895C13.2591 6.25595 13.3165 6.26469 13.3734 6.27537C13.7732 6.35066 14.1667 6.44877 14.5558 6.56875C15.3238 6.80529 15.8121 7.30364 16.0436 8.07256C16.1656 8.47813 16.2639 8.88759 16.3437 9.30287C16.3646 9.41216 16.3787 9.5399 16.5348 9.56516C16.672 9.52582 16.6856 9.40342 16.705 9.29171C16.7799 8.8667 16.8865 8.45045 17.0144 8.03808C17.2493 7.28134 17.7439 6.79852 18.5027 6.56784C18.9083 6.44447 19.3183 6.34538 19.7342 6.26621C19.8446 6.24532 19.9924 6.23755 19.9992 6.08941C20.0065 5.93349 19.8548 5.93107 19.7463 5.90435C19.6257 5.87472 19.5017 5.85917 19.3801 5.83149C18.8378 5.70812 18.2916 5.59057 17.8173 5.27874C17.2969 4.93632 17.0756 4.40202 16.9244 3.83176C16.8334 3.48788 16.7663 3.13768 16.6855 2.79087C16.6646 2.70053 16.633 2.60532 16.5158 2.60873C16.4127 2.61165 16.383 2.70053 16.3636 2.78067C16.328 2.92542 16.3037 3.07308 16.2716 3.2183C16.1486 3.77736 16.0255 4.33933 15.6948 4.82171C15.3602 5.31034 14.8466 5.51676 14.3032 5.67366C13.9438 5.7776 13.5776 5.84706 13.2123 5.92429C13.1321 5.94226 13.048 5.97471 13.0431 6.0772Z" fill="#6C65DA"/>
<path d="M2.62799 3.13625C2.97583 2.9563 3.42803 3.07842 3.638 3.409L9.29423 12.3143C10.3804 14.0244 9.80224 16.1653 8.00288 17.0961L0.37997 5.09446C0.169997 4.76387 0.281763 4.35 0.629607 4.17005L2.62799 3.13625Z" fill="#6C65DA"/>
<path d="M8.22564 3.13625C8.57349 2.9563 9.02569 3.07842 9.23566 3.409L14.8919 12.3143C15.9781 14.0244 15.3999 16.1653 13.6005 17.0961L5.97763 5.09446C5.76765 4.76387 5.87942 4.35 6.22726 4.17005L8.22564 3.13625Z" fill="#6C65DA"/>
</svg>
